<?xml version="1.0" encoding="utf-8"?>
<!-- Generator: Adobe Illustrator 27.7.0, SVG Export Plug-In . SVG Version: 6.00 Build 0)  -->
<svg version="1.1" id="Layer_1" xmlns="http://www.w3.org/2000/svg" xmlns:xlink="http://www.w3.org/1999/xlink" x="0px" y="0px"
	 viewBox="0 0 810.8 119.8" style="enable-background:new 0 0 810.8 119.8;" xml:space="preserve">
<style type="text/css">
	.st0{fill:#181818;}
	.st1{fill:none;stroke:#181818;stroke-width:9.45;stroke-linecap:round;stroke-linejoin:round;}
</style>
<path class="st0" d="M143,38v-8.5h41.9V38H169v45.2h16.5v8.6h-43v-8.6H159V38H143z M239.4,91.8h-13.8l-16-39.5
	c-1.8-4.5-4.2-12.5-4.2-12.5H205c0,0,0.4,7.2,0.4,13.2v38.8h-8.8V29.5h13.8l16,39.5c1.8,4.5,4.2,12.5,4.2,12.5h0.4
	c0,0-0.4-7.2-0.4-13.2V29.5h8.8V91.8z M268.3,63c-8.2-2.6-17.2-6.2-17.2-17c0-10.4,7.7-17.6,19.4-17.6c10.1,0,19.8,5.2,23.9,16.3
	l-9.3,5.8c-1.3-8.2-6.8-13.5-14.6-13.5c-5.3,0-9.5,3.1-9.5,8c0,6.7,8,8,16.1,10.7c9.3,3.1,17.9,7,17.9,18.5c0,11-8.1,18.5-21,18.5
	c-12.2,0-22-6.6-25.3-18.7l9.4-5.9c1.3,8.8,5.9,16,15.8,16c6.6,0,11-3.6,11-9.4C285,67.1,276.8,65.9,268.3,63z M301.9,38.9v-9.4
	h47.9v9.4H331v52.9h-10.3V38.9H301.9z M394.6,91.8l-4.6-16h-20.6l-4.5,16h-10l18.4-62.3h13.2l18.3,62.3H394.6z M377.1,48.8L371.9,67
	h15.7l-5.2-18.3c-1-3.4-2.4-10.3-2.4-10.3h-0.3C379.6,38.5,378,45.3,377.1,48.8z M456.4,91.8h-41.5V29.5h10.2v53.3H447V62.4l9.5,5.8
	v23.6H456.4z M466.8,38v-8.5h41.9V38h-15.9v45.2h16.5v8.6h-43v-8.6h16.5V38H466.8z M564.3,91.8h-41.5V29.5H533v53.3h21.9V62.4
	l9.5,5.8v23.6H564.3z M577,83.2h13.8V66.9L571,29.5h10.8l9.5,18.8c2.2,4.5,4.5,9.9,4.5,9.9h0.3c0,0,2.2-5.3,4.4-9.9l9.5-18.8h10.4
	L600.6,67v16.2h13.8v8.6H577V83.2z M642.6,91.8V78.4h14v13.4H642.6z M718.4,91.8l-4.6-16h-20.6l-4.5,16h-10L697,29.5h13.2l18.3,62.3
	H718.4z M700.9,48.8L695.7,67h15.7l-5.2-18.3c-1-3.4-2.4-10.3-2.4-10.3h-0.3C703.4,38.5,701.8,45.3,700.9,48.8z M736.6,38v-8.5h41.9
	V38h-15.9v45.2h16.5v8.6h-43v-8.6h16.5V38H736.6z"/>
<path class="st1" d="M90.7,31.8c13.8,0,25,12.5,25,28v28h-25"/>
<polygon class="st0" points="82,92.5 87.7,83.1 98.4,83.1 98.4,92.5 "/>
<polygon class="st0" points="111,76.1 120.4,81.8 120.4,92.5 111,92.5 "/>
<rect x="86" y="27.1" class="st0" width="4.7" height="9.4"/>
<path class="st1" d="M67.3,87.8c-13.8,0-25-12.5-25-28v-28h25"/>
<polygon class="st0" points="76.1,27.1 70.3,36.5 59.6,36.5 59.6,27.1 "/>
<polygon class="st0" points="47,43.5 37.6,37.7 37.6,27.1 47,27.1 "/>
<rect x="67.4" y="83.1" class="st0" width="4.7" height="9.4"/>
</svg>
